# xmcd CD database file
#
# Track frame offsets:
#	150
#	24325
#	42748
#	62448
#	91348
#	118548
#	136148
#
# Disc length: 2128 seconds
#
# Revision: 0
# Processed by: cddbd v1.5PL3 Copyright (c) Steve Scherf et al.
# Submitted via: CDex 1.51
#
DISCID=54084e07
DTITLE=DJ TECHNETIUM - ラグコア
DYEAR=2003
DGENRE=Hardcore
TTITLE0=Title (MAKINA MIX)
TTITLE1=イズルートのテーマ (HAPPY HARDCORE MIX)
TTITLE2=モロクのテーマ (MAKINA MIX)
TTITLE3=スフィンクスダンジョンでルーロ♪ルロロ♪ (MAKINA MIX)
TTITLE4=大きなのっぽの古クロック （時計塔に出てくるクロックというモンスターのイメージソング) (MAKINA MIX)
TTITLE5=合併アリ○アハン (NEWSTYLE MIX)
TTITLE6=END OF FANTASY (MAKINA MIX)
EXTD=YEAR: 2003
EXTT0=
EXTT1=
EXTT2=
EXTT3=
EXTT4=
EXTT5=
EXTT6=
PLAYORDER=
